HIERARCHY
ROOT Hips
{
	OFFSET 0.000000 0.000000 0.000000 
	CHANNELS 6 Xposition Yposition Zposition Zrotation Yrotation Xrotation
	JOINT LeftUpLeg
	{
		OFFSET 1.363060 -1.794630 0.839290 
		CHANNELS 3 Zrotation Yrotation Xrotation
		JOINT LeftLeg
		{
			OFFSET 2.448110 -6.726130 0.000000 
			CHANNELS 3 Zrotation Yrotation Xrotation
			JOINT LeftFoot
			{
				OFFSET 2.562200 -7.039590 0.000000 
				CHANNELS 3 Zrotation Yrotation Xrotation
				JOINT LeftToeBase
				{
					OFFSET 0.157640 -0.433110 2.322550 
					CHANNELS 3 Zrotation Yrotation Xrotation
					End Site
					{
						OFFSET 0.000000 0.000000 0.000000 
					}
				}
			}
		}
	}
	JOINT RightUpLeg
	{
		OFFSET -1.305520 -1.794630 0.839290 
		CHANNELS 3 Zrotation Yrotation Xrotation
		JOINT RightLeg
		{
			OFFSET -2.542530 -6.985550 0.000000 
			CHANNELS 3 Zrotation Yrotation Xrotation
			JOINT RightFoot
			{
				OFFSET -2.568260 -7.056230 0.000000 
				CHANNELS 3 Zrotation Yrotation Xrotation
				JOINT RightToeBase
				{
					OFFSET -0.164730 -0.452590 2.363150 
					CHANNELS 3 Zrotation Yrotation Xrotation
					End Site
					{
						OFFSET 0.000000 0.000000 0.000000 
					}
				}
			}
		}
	}
	JOINT Spine
	{
		OFFSET 0.028270 2.035590 -0.193380 
		CHANNELS 3 Zrotation Yrotation Xrotation
		JOINT Spine1
		{
			OFFSET 0.056720 2.048850 -0.042750 
			CHANNELS 3 Zrotation Yrotation Xrotation
			JOINT Neck1
			{
				OFFSET -0.054170 1.746240 0.172020 
				CHANNELS 3 Zrotation Yrotation Xrotation
				JOINT Head
				{
					OFFSET 0.104070 1.761360 -0.123970 
					CHANNELS 3 Zrotation Yrotation Xrotation
					End Site
					{
						OFFSET 0.000000 0.000000 0.000000 
					}
				}
			}
			JOINT LeftArm
			{
				OFFSET 3.362410 1.200890 -0.311210 
				CHANNELS 3 Zrotation Yrotation Xrotation
				JOINT LeftForeArm
				{
					OFFSET 4.983000 -0.000000 -0.000000 
					CHANNELS 3 Zrotation Yrotation Xrotation
					JOINT LeftHand
					{
						OFFSET 3.483560 -0.000000 -0.000000 
						CHANNELS 3 Zrotation Yrotation Xrotation
						JOINT LeftHandIndex1
						{
							OFFSET 0.715260 -0.000000 -0.000000 
							CHANNELS 3 Zrotation Yrotation Xrotation
							End Site
							{
								OFFSET 0.000000 0.000000 0.000000 
							}
						}
					}
				}
			}
			JOINT RightArm
			{
				OFFSET -3.136600 1.374050 -0.404650 
				CHANNELS 3 Zrotation Yrotation Xrotation
				JOINT RightForeArm
				{
					OFFSET -5.241900 -0.000000 -0.000000 
					CHANNELS 3 Zrotation Yrotation Xrotation
					JOINT RightHand
					{
						OFFSET -3.444170 -0.000000 -0.000000 
						CHANNELS 3 Zrotation Yrotation Xrotation
						JOINT RightHandIndex1
						{
							OFFSET -0.622530 -0.000000 -0.000000 
							CHANNELS 3 Zrotation Yrotation Xrotation
							End Site
							{
								OFFSET 0.000000 0.000000 0.000000 
							}
						}
					}
				}
			}
		}
	}
}
MOTION
Frames: 15
Frame Time: 0.041667
9.382991 18.032806 40.419439 -179.282971 0.127885 -168.710733 -25.515696 -12.890672 -1.838691 1.535411 1.514996 6.580866 2.095230 -2.267879 -26.199602 8.287000 -16.326400 -53.590100 32.072575 11.042924 -1.895712 -1.888737 -1.869947 10.561204 -1.851982 2.408908 -22.927505 -2.397400 9.649000 -27.847400 0.859162 2.964560 -5.482251 1.668742 1.562038 3.022998 9.205348 -6.428685 26.874009 2.297000 -2.867400 9.770000 -89.687657 -1.744054 19.615209 7.348406 -15.135755 -1.488093 0.800703 0.154298 27.434917 -7.125000 0.000000 0.000000 88.380819 -11.399602 -11.991721 -10.708131 28.146348 -4.722897 -1.332426 -3.817642 15.774980 7.125000 0.000000 0.000000 
9.419155 18.034369 40.418710 -179.381362 0.051975 -168.768575 -25.495585 -12.918962 -1.653376 1.526995 1.441417 6.389284 2.090076 -2.323372 -26.175904 8.218800 -16.277900 -53.347100 32.081615 10.860568 -1.964819 -1.906296 -1.923451 10.725416 -1.832710 2.551559 -22.907985 -2.372200 9.601800 -27.696700 0.927119 2.787354 -5.450478 1.675667 1.476498 3.077634 9.560084 -6.675699 26.812189 2.422900 -2.960200 9.821700 -89.885809 -1.999756 19.152757 7.141679 -14.853787 -1.446820 0.802663 0.136542 28.015485 -7.125000 0.000000 0.000000 88.138571 -11.305720 -12.128989 -10.718410 28.101010 -4.726295 -1.333266 -3.806758 15.661964 7.125000 0.000000 0.000000 
9.458237 18.034161 40.417459 -179.640470 -0.047400 -168.833130 -25.700533 -13.075414 -1.376356 1.509739 1.356202 6.170860 2.098915 -2.244539 -26.166107 8.194000 -16.260100 -53.258400 31.910946 10.625192 -1.944276 -1.923050 -1.933599 10.791583 -1.825455 2.665788 -22.922710 -2.358100 9.575200 -27.611900 0.975044 2.569963 -5.462386 1.708004 1.374688 3.030146 9.653140 -6.660272 26.815627 2.460700 -2.950100 9.827700 -90.064329 -2.190669 18.727291 6.910312 -14.533470 -1.400131 0.804143 0.120937 28.623168 -7.125000 0.000000 0.000000 87.853444 -11.410762 -12.046075 -10.783879 28.127823 -4.737053 -1.306659 -3.784135 15.321646 7.125000 0.000000 0.000000 
9.502842 18.034473 40.416209 -179.698507 -0.212613 -168.755641 -25.586023 -13.209487 -1.382880 1.501760 1.322268 6.065671 2.113233 -1.977503 -26.122147 8.374600 -16.388000 -53.901200 32.035450 10.603594 -2.041853 -1.920435 -1.970990 10.876281 -1.841680 2.605651 -23.005212 -2.369800 9.597200 -27.682000 1.057269 2.342768 -5.498110 1.680953 1.269293 3.006130 9.616678 -6.686010 26.682139 2.423600 -2.959700 9.764500 -90.161740 -2.344127 18.791716 6.757182 -14.320398 -1.366154 0.804166 0.112906 28.828355 -7.125000 0.000000 0.000000 87.536836 -11.433865 -12.215632 -10.747687 28.013056 -4.716147 -1.277309 -3.770743 15.203982 7.125000 0.000000 0.000000 
9.551616 18.036037 40.408601 -179.582827 -0.344806 -168.692606 -25.243938 -13.323649 -1.490647 1.507675 1.366844 6.173324 2.144387 -1.768378 -26.231203 8.547100 -16.507300 -54.510200 32.393183 10.574258 -2.104438 -1.906533 -1.999836 10.930481 -1.838667 2.631155 -23.022949 -2.380400 9.617200 -27.745800 1.220585 2.052425 -5.538773 1.732722 1.138176 3.008617 9.654555 -6.598147 26.565898 2.462500 -2.928900 9.710500 -90.425571 -2.367479 18.982329 6.713666 -14.260941 -1.349279 0.800902 0.121161 28.671036 -7.125000 0.000000 0.000000 87.034489 -11.502182 -12.325009 -10.681745 27.843998 -4.686784 -1.267441 -3.734087 15.195120 7.125000 0.000000 0.000000 
9.605393 18.036453 40.400263 -179.673966 -0.369185 -168.741932 -25.161008 -13.522801 -1.528989 1.515987 1.481445 6.481182 2.198126 -1.555306 -26.491136 8.725600 -16.627900 -55.136200 32.512268 10.532862 -2.074911 -1.910044 -2.030096 11.025421 -1.835448 2.726200 -23.069500 -2.338000 9.537200 -27.490700 1.350913 1.786750 -5.560946 1.824185 1.016660 2.972106 9.678944 -6.523917 26.474458 2.507900 -2.916200 9.654500 -90.695746 -2.327987 19.121562 6.774139 -14.341780 -1.364526 0.804782 0.125373 28.589498 -7.125000 0.000000 0.000000 86.521224 -11.568448 -12.388786 -10.623540 27.684914 -4.658640 -1.249620 -3.698504 15.288967 7.125000 0.000000 0.000000 
9.661046 18.035515 40.394219 -179.844978 -0.439246 -168.726985 -25.159462 -13.763946 -1.574712 1.519075 1.557790 6.678196 2.238125 -1.331238 -26.658413 8.899600 -16.742700 -55.742400 32.540233 10.508574 -2.133656 -1.920880 -2.081956 11.167754 -1.840903 2.782542 -23.157749 -2.279300 9.425100 -27.134400 1.434753 1.573979 -5.543123 1.809339 0.912592 3.036276 9.678189 -6.559347 26.289320 2.508300 -2.938600 9.580600 -90.828795 -2.540187 19.143819 6.784538 -14.349549 -1.383481 0.817422 0.101384 28.826960 -7.125000 0.000000 0.000000 86.165386 -11.465597 -12.834968 -10.617316 27.556466 -4.643790 -1.206442 -3.677823 15.763201 7.125000 0.000000 0.000000 
9.717949 18.034577 40.389529 179.990114 -0.569019 -168.645039 -25.127532 -13.964663 -1.691883 1.523066 1.607599 6.797683 2.252759 -1.177948 -26.699347 9.043400 -16.835600 -56.240100 32.565598 10.402475 -2.277105 -1.934504 -2.132038 11.296052 -1.828431 2.926494 -23.196119 -2.167900 9.207400 -26.446400 1.549091 1.257771 -5.536618 1.797929 0.756326 3.133184 9.486757 -6.472750 26.248501 2.460200 -2.912300 9.580800 -91.036350 -2.739158 19.038102 6.826171 -14.393719 -1.399335 0.823378 0.085079 28.955514 -7.125000 0.000000 0.000000 85.687697 -11.393638 -13.159142 -10.646770 27.463436 -4.636113 -1.161101 -3.639079 16.199726 7.125000 0.000000 0.000000 
9.779021 18.035411 40.382650 179.769769 -0.628070 -168.642610 -25.156164 -14.109120 -1.718619 1.525765 1.660027 6.936332 2.273134 -1.028632 -26.772698 9.196300 -16.932400 -56.766600 32.516049 10.162012 -2.344861 -1.951375 -2.149444 11.360059 -1.792829 3.198168 -23.154437 -2.063500 8.997100 -25.786200 1.661566 0.945926 -5.523286 1.804014 0.601756 3.208335 9.140698 -6.241593 26.208312 2.371600 -2.825700 9.578500 -91.262151 -2.809237 19.184146 6.994982 -14.610581 -1.431154 0.823565 0.091134 28.684299 -7.125000 0.000000 0.000000 85.126457 -11.310663 -13.380449 -10.599191 27.294507 -4.609350 -1.140498 -3.603498 16.248787 7.125000 0.000000 0.000000 
9.840510 18.036349 40.368060 179.576643 -0.621394 -168.660022 -25.167625 -14.137457 -1.627670 1.522365 1.673260 6.980437 2.297467 -0.871323 -26.852963 9.370900 -17.040600 -57.364100 32.481069 9.843667 -2.386047 -1.968713 -2.154766 11.397122 -1.740875 3.583448 -23.085462 -2.001200 8.868500 -25.384800 1.721832 0.774347 -5.474732 1.655261 0.511205 3.360258 8.944971 -6.240787 26.311259 2.284500 -2.822200 9.651200 -91.301833 -2.765765 20.080020 7.322062 -15.048812 -1.493879 0.822559 0.114400 27.919199 -7.125000 0.000000 0.000000 84.743418 -11.087535 -14.037288 -10.451845 26.995136 -4.556386 -1.136304 -3.594558 16.201299 7.125000 0.000000 0.000000 
9.905125 18.034265 40.354928 179.353487 -0.516475 -168.687336 -25.177918 -14.094331 -1.560413 1.518613 1.692810 7.039297 2.325674 -0.697375 -26.953210 9.531000 -17.137500 -57.908900 32.444891 9.768714 -2.498584 -2.004974 -2.230807 11.630053 -1.689921 4.008257 -23.082766 -1.835900 8.515700 -24.291600 1.924152 0.288234 -5.508621 1.827839 0.275599 3.348513 8.707701 -5.753662 26.533979 2.339600 -2.653400 9.742900 -91.716849 -2.275527 20.648689 7.902309 -15.814492 -1.610552 0.819634 0.150910 26.838648 -7.125000 0.000000 0.000000 83.682640 -11.031778 -13.749307 -10.294615 26.691212 -4.479803 -1.071069 -3.543276 15.893519 7.125000 0.000000 0.000000 
9.976306 18.031764 40.347737 179.155622 -0.440302 -168.732937 -25.116814 -14.118268 -1.597597 1.524827 1.772968 7.256376 2.355636 -0.493609 -27.067063 9.665500 -17.217400 -58.364300 32.485796 9.856810 -2.605967 -2.042679 -2.338877 11.943930 -1.641059 4.352330 -23.054811 -1.628100 8.044300 -22.848700 2.039744 0.000006 -5.608319 1.791373 0.148408 3.045533 8.392635 -5.493278 26.574777 2.284000 -2.580700 9.728600 -91.807559 -1.859547 21.511744 8.375427 -16.426448 -1.702907 0.813782 0.183290 25.896525 -7.125000 0.000000 0.000000 83.070121 -11.292398 -13.734945 -10.302831 26.594277 -4.459969 -1.008114 -3.506246 15.662418 7.125000 0.000000 0.000000 
10.049155 18.030305 40.339296 178.989719 -0.423038 -168.768245 -25.003557 -14.232056 -1.769155 1.547010 1.931559 7.682428 2.381311 -0.370025 -27.208299 9.800500 -17.296100 -58.819500 32.555616 9.828431 -2.687166 -2.070606 -2.411428 12.156697 -1.579385 4.690560 -22.937647 -1.545500 7.847200 -22.251100 2.129986 -0.242797 -5.659756 1.654184 0.036339 2.870923 7.989919 -5.314843 26.103674 2.145500 -2.527600 9.498700 -91.819007 -1.869442 21.882255 8.543048 -16.629168 -1.746194 0.819501 0.181030 25.590353 -7.125000 0.000000 0.000000 82.557250 -11.291110 -14.269228 -10.160728 26.281087 -4.396055 -0.992108 -3.458673 16.161400 7.125000 0.000000 0.000000 
10.118460 18.029471 40.328248 178.685725 -0.426000 -168.827598 -25.061697 -14.355688 -2.039950 1.582601 2.155775 8.288266 2.388412 -0.414530 -27.323037 9.946900 -17.379900 -59.310800 32.409868 9.587635 -2.754934 -2.108494 -2.461973 12.333074 -1.506815 5.101690 -22.797819 -1.550300 7.858700 -22.285800 2.207787 -0.535125 -5.670842 1.537335 -0.117982 2.834555 6.793609 -4.195497 27.516245 2.083900 -0.637900 10.027400 -91.801574 -1.870956 22.444007 8.733418 -16.869919 -1.807464 0.831241 0.172752 25.192510 -7.125000 0.000000 0.000000 81.896376 -11.039172 -14.958749 -9.848565 25.744860 -4.276500 -0.985440 -3.408579 16.894447 7.125000 0.000000 0.000000 
10.184014 18.029367 40.317201 178.293725 -0.554498 -168.874935 -25.218363 -14.508414 -2.453640 1.633743 2.429191 9.028987 2.358363 -0.607593 -27.284084 10.097600 -17.464300 -59.813900 32.108358 9.161004 -2.860432 -2.157298 -2.513891 12.526947 -1.426345 5.607614 -22.688478 -1.444800 7.598800 -21.501900 2.309818 -0.883160 -5.704211 1.495762 -0.290174 2.781898 6.271151 -4.011492 27.115960 1.907900 -0.637500 9.818500 -91.874682 -1.753532 23.085760 9.067908 -17.291541 -1.888048 0.833809 0.183862 24.859355 -7.125000 0.000000 0.000000 81.102646 -10.780043 -15.680736 -9.484277 25.109386 -4.134244 -0.979465 -3.344130 17.600110 7.125000 0.000000 0.000000 
